# xmcd
#
# Track frame offsets: 
#        150
#        11242
#        24106
#        35857
#        47787
#        59744
#        69597
#        80917
#        90143
#        101340
#        112415
#        122670
#        135342
#        147488
#        161282
#        172075
#        186413
#        200647
#        210946
#        222377
#        236366
#        249694
#        261417
#        272978
#        283734
#        293731
#        304185
#
# Disc length: 4196 seconds
#
# Revision: 0
# Processed by: cddbd v1.5.2PL0 Copyright (c) Steve Scherf et al.
# Submitted via: ExactAudioCopy v1.3
#
DISCID=a510621b
DTITLE=Lefty Frizzell - CD06_Recordings 1962-65
DYEAR=2018
DGENRE=Country
TTITLE0=Stranger
TTITLE1=A Few Steps Away
TTITLE2=Forbidden Lovers
TTITLE3=Just Passing Through
TTITLE4=That Reminds Me Of Me
TTITLE5=Don't Let Her See Me Cry
TTITLE6=Through The Eyes Of A Fool
TTITLE7=James River
TTITLE8=Preview Of Coming Attractions
TTITLE9=Lonely Heart
TTITLE10=What Good Did You Get (Out Of Breaking My Heart)
TTITLE11=When It Rains The Blues
TTITLE12=I'm Not The Man I'm Supposed To Be
TTITLE13=Saginaw Michigan
TTITLE14=There's No Food In This House
TTITLE15=The Rider
TTITLE16=The Nester
TTITLE17=I Was Coming Home To You
TTITLE18=Hello To Him (Goodbye To Me)
TTITLE19=I Can Tell
TTITLE20=Make That One For The Road A Cup Of Coffee
TTITLE21='Gator Hollow
TTITLE22=It Costs Too Much To Die
TTITLE23=She's Gone, Gone, Gone
TTITLE24=Running Into Memories Of You
TTITLE25=Confused
TTITLE26=How Far Down Can I Go
EXTD=
EXTT0=
EXTT1=
EXTT2=
EXTT3=
EXTT4=
EXTT5=
EXTT6=
EXTT7=
EXTT8=
EXTT9=
EXTT10=
EXTT11=
EXTT12=
EXTT13=
EXTT14=
EXTT15=
EXTT16=
EXTT17=
EXTT18=
EXTT19=
EXTT20=
EXTT21=
EXTT22=
EXTT23=
EXTT24=
EXTT25=
EXTT26=
PLAYORDER=
